<svg width="131" height="40" viewBox="0 0 131 40" fill="none" xmlns="http://www.w3.org/2000/svg">
<path d="M0.924316 19.6155C0.924316 30.2434 9.70386 39.0229 20.3317 39.0229C30.9596 39.0229 39.7391 30.2434 39.7391 19.6155C39.7391 8.98763 30.9596 0.323608 20.3317 0.323608C9.70386 0.323608 0.924316 8.98763 0.924316 19.6155ZM27.494 28.6261C22.9887 25.8536 17.2127 25.1605 10.5125 26.6622C8.89522 26.8933 8.66418 24.5829 10.0504 24.3518C17.4437 22.619 23.6818 23.4277 28.7647 26.5467C30.0354 27.3554 28.7647 29.3192 27.494 28.6261ZM29.4578 23.4277C24.2594 20.1931 16.2885 19.2689 10.1659 21.1173C8.20209 21.6949 7.50897 18.6913 9.3573 18.2293C16.404 16.1499 25.0681 17.1896 31.0751 20.8862C32.6924 21.9259 31.0751 24.4673 29.4578 23.4277ZM9.24178 15.2257C7.27793 15.9188 6.00721 12.5688 8.20209 11.7601C15.0178 9.68075 26.5698 10.0273 33.7321 14.3016C35.6959 15.3412 33.8476 18.5758 31.7682 17.4206C25.5301 13.724 15.1333 13.3774 9.24178 15.2257ZM53.024 25.7381C51.0601 25.7381 49.2118 25.0449 47.5945 23.4277C47.479 23.4277 47.479 23.5432 47.479 23.5432L45.6307 25.7381C45.5151 25.8536 45.5151 25.9691 45.6307 26.0846C47.71 27.933 50.2515 28.8571 53.024 28.8571C56.9516 28.8571 59.3776 26.6622 59.3776 23.4277C59.3776 20.6552 57.6448 19.1534 53.6016 18.1137C50.2515 17.3051 49.6739 16.7275 49.6739 15.5723C49.6739 14.4171 50.8291 13.724 52.3308 13.724C53.8326 13.724 55.2188 14.3016 56.8361 15.4568C56.8361 15.4568 56.9516 15.5723 57.0672 15.5723C57.1827 15.5723 57.1827 15.4568 57.1827 15.4568L58.8 13.1464C58.9155 13.0308 58.9155 13.0308 58.8 12.9153C56.9516 11.4136 54.7568 10.6049 52.3308 10.6049C48.7497 10.6049 46.2083 12.7998 46.2083 15.9188C46.2083 19.2689 48.5187 20.3086 52.2153 21.2328C55.4499 21.9259 55.912 22.619 55.912 23.7742C55.912 25.0449 54.7568 25.7381 53.024 25.7381ZM63.9984 16.843V15.3412C63.9984 15.2257 63.8829 15.1102 63.7673 15.1102H60.7638C60.6483 15.1102 60.5328 15.2257 60.5328 15.3412V32.3227C60.5328 32.4382 60.6483 32.5538 60.7638 32.5538H63.7673C63.8829 32.5538 63.9984 32.4382 63.9984 32.3227V27.0088C65.1536 28.2795 66.4243 28.8571 68.1571 28.8571C71.2762 28.8571 74.3952 26.4312 74.3952 21.8104C74.3952 17.1896 71.2762 14.8792 68.1571 14.8792C66.4243 14.8792 65.1536 15.4568 63.9984 16.843ZM67.464 25.8536C65.3846 25.8536 63.8829 24.1208 63.8829 21.8104C63.8829 19.5 65.3846 17.8827 67.464 17.8827C69.5434 17.8827 70.9296 19.5 70.9296 21.8104C70.9296 24.1208 69.5434 25.8536 67.464 25.8536ZM75.3194 21.9259C75.3194 25.8536 78.4384 28.8571 82.4816 28.8571C86.5248 28.8571 89.6439 25.7381 89.6439 21.8104C89.6439 17.8827 86.6404 14.8792 82.5972 14.8792C78.5539 14.8792 75.3194 17.9982 75.3194 21.9259ZM78.785 21.8104C78.785 19.5 80.2867 17.8827 82.4816 17.8827C84.6765 17.8827 86.2938 19.6155 86.2938 21.9259C86.2938 24.2363 84.792 25.8536 82.5972 25.8536C80.4023 25.8536 78.785 24.1208 78.785 21.8104ZM94.9578 15.1102V11.7601C94.9578 11.6446 94.9578 11.5291 94.8423 11.5291H91.8388C91.7233 11.5291 91.6077 11.6446 91.6077 11.7601V15.1102H90.106C89.9904 15.1102 89.8749 15.2257 89.8749 15.3412V17.8827C89.8749 17.9982 89.9904 18.1137 90.106 18.1137H91.6077V24.8139C91.6077 27.4709 92.8785 28.8571 95.5354 28.8571C96.5751 28.8571 97.6148 28.6261 98.4234 28.164C98.5389 28.164 98.5389 28.0485 98.5389 27.933V25.507C98.5389 25.3915 98.5389 25.276 98.4234 25.276H98.1924C97.6148 25.6226 96.9217 25.7381 96.3441 25.7381C95.4199 25.7381 94.9578 25.276 94.9578 24.3518V18.1137H98.4234C98.5389 18.1137 98.6545 17.9982 98.6545 17.8827V15.3412C98.6545 15.2257 98.5389 15.1102 98.4234 15.1102H94.9578ZM109.86 14.7636C109.86 13.4929 110.322 13.0308 111.362 13.0308C111.939 13.0308 112.517 13.0308 113.095 13.2619H113.21C113.21 13.2619 113.326 13.1464 113.326 13.0308V10.6049C113.326 10.4894 113.326 10.3739 113.21 10.3739C112.632 10.1428 111.824 10.0273 110.669 10.0273C107.896 10.0273 106.51 11.6446 106.51 14.5326V15.1102H105.008C104.893 15.1102 104.777 15.2257 104.777 15.3412V17.8827C104.777 17.9982 104.893 18.1137 105.008 18.1137H106.51V28.395C106.51 28.5106 106.625 28.6261 106.741 28.6261H109.744C109.86 28.6261 109.86 28.5106 109.86 28.395V18.1137H112.748L117.022 28.395C116.56 29.4347 116.098 29.6658 115.405 29.6658C114.827 29.6658 114.25 29.5502 113.672 29.2037H113.557L113.441 29.3192L112.401 31.5141C112.401 31.6296 112.401 31.8606 112.517 31.8606C113.557 32.4382 114.481 32.6693 115.636 32.6693C117.831 32.6693 119.102 31.6296 120.141 28.8571L125.34 15.4568V15.2257C125.34 15.1102 125.224 15.1102 125.109 15.1102H121.99C121.874 15.1102 121.874 15.2257 121.874 15.3412L118.639 24.3518L115.174 15.3412C115.174 15.2257 115.058 15.1102 114.943 15.1102H109.86V14.7636ZM100.272 15.1102C100.156 15.1102 100.041 15.2257 100.041 15.3412V28.395C100.041 28.5106 100.156 28.6261 100.272 28.6261H103.275C103.391 28.6261 103.391 28.5106 103.391 28.395V15.3412C103.391 15.2257 103.391 15.1102 103.275 15.1102H100.272ZM99.5786 11.298C99.5786 12.4532 100.618 13.4929 101.774 13.4929C102.929 13.4929 103.853 12.4532 103.853 11.298C103.853 10.1428 102.929 9.21867 101.774 9.21867C100.618 9.21867 99.5786 10.1428 99.5786 11.298ZM127.881 19.2689C129.036 19.2689 130.076 18.3448 130.076 17.1896C130.076 16.0344 129.036 15.1102 127.881 15.1102C126.726 15.1102 125.802 16.0344 125.802 17.1896C125.802 18.3448 126.726 19.2689 127.881 19.2689ZM127.881 15.3412C128.921 15.3412 129.845 16.1499 129.845 17.1896C129.845 18.2293 128.921 19.0379 127.881 19.0379C126.841 19.0379 126.033 18.2293 126.033 17.1896C126.033 16.1499 126.841 15.3412 127.881 15.3412ZM128.343 17.4206C128.69 17.3051 128.921 17.074 128.921 16.7275C128.921 16.2654 128.459 16.0344 127.997 16.0344H127.072V18.2293H127.535V17.5361H127.997L128.459 18.2293H129.036L128.343 17.4206ZM127.997 16.3809C128.228 16.3809 128.459 16.4964 128.459 16.7275C128.459 16.9585 128.228 17.074 127.997 17.074H127.535V16.3809H127.997Z" fill="white"/>
</svg>
