<svg width="132" height="40" viewBox="0 0 132 40" fill="none" xmlns="http://www.w3.org/2000/svg">
<path fill-rule="evenodd" clip-rule="evenodd" d="M129.552 19.8566C129.271 19.8574 128.991 19.8025 128.731 19.695C128.47 19.5875 128.234 19.4296 128.035 19.2303C127.835 19.0311 127.678 18.7944 127.57 18.5339C127.463 18.2734 127.409 17.9943 127.41 17.7126C127.41 16.5359 128.358 15.556 129.565 15.556C129.847 15.5552 130.126 15.6101 130.386 15.7176C130.647 15.825 130.883 15.983 131.083 16.1823C131.282 16.3815 131.44 16.6182 131.547 16.8787C131.654 17.1392 131.709 17.4183 131.708 17.7C131.708 18.2716 131.481 18.8198 131.076 19.2242C130.672 19.6286 130.124 19.856 129.552 19.8566ZM129.565 15.7696C129.31 15.7676 129.057 15.8166 128.821 15.9137C128.585 16.0108 128.37 16.154 128.191 16.335C128.011 16.516 127.869 16.7311 127.773 16.9677C127.678 17.2042 127.63 17.4575 127.634 17.7126C127.634 18.7804 128.459 19.6409 129.552 19.6409C129.807 19.6426 130.06 19.5935 130.296 19.4964C130.532 19.3993 130.746 19.2563 130.925 19.0756C131.105 18.8948 131.247 18.6801 131.343 18.444C131.439 18.2078 131.487 17.9549 131.484 17.7C131.487 17.4465 131.441 17.1947 131.346 16.9596C131.251 16.7244 131.11 16.5106 130.931 16.3307C130.752 16.1508 130.539 16.0085 130.305 15.9122C130.07 15.8158 129.819 15.7673 129.565 15.7696ZM130.038 17.9199L130.646 18.7699H130.135L129.59 17.991H129.119V18.7699H128.691V16.5191H129.697C130.218 16.5191 130.562 16.7871 130.562 17.2373C130.562 17.6058 130.348 17.8319 130.038 17.9199ZM129.678 16.9044H129.119V17.6163H129.678C129.957 17.6163 130.122 17.4802 130.122 17.2603C130.122 17.03 129.954 16.9044 129.678 16.9044ZM102.86 9.53439C102.28 9.53411 101.724 9.76392 101.315 10.1733C100.905 10.5826 100.674 11.1379 100.674 11.7171C100.674 12.2963 100.904 12.8519 101.313 13.2616C101.723 13.6713 102.278 13.9017 102.858 13.902C103.437 13.902 103.993 13.6718 104.403 13.262C104.813 12.8523 105.043 12.2966 105.043 11.7171C105.043 11.1377 104.813 10.582 104.403 10.1722C103.993 9.76248 103.437 9.53229 102.858 9.53229M104.366 15.5832H101.32C101.261 15.5838 101.205 15.6076 101.163 15.6496C101.121 15.6915 101.098 15.7482 101.098 15.8073V29.0942C101.098 29.2198 101.197 29.3182 101.32 29.3182H104.368C104.427 29.3182 104.484 29.2946 104.526 29.2526C104.568 29.2106 104.592 29.1536 104.592 29.0942V15.8073C104.592 15.7478 104.568 15.6909 104.526 15.6488C104.484 15.6068 104.425 15.5832 104.366 15.5832ZM111.139 15.5958V15.177C111.139 13.9375 111.615 13.3848 112.681 13.3848C113.316 13.3848 113.825 13.5104 114.398 13.703C114.432 13.7144 114.468 13.7176 114.503 13.7122C114.538 13.7069 114.572 13.6931 114.6 13.6722C114.629 13.6513 114.652 13.6238 114.668 13.592C114.684 13.5602 114.692 13.525 114.692 13.4895V10.9246C114.691 10.8767 114.676 10.8301 114.647 10.7916C114.619 10.7532 114.578 10.725 114.532 10.7111C113.711 10.4603 112.857 10.3374 111.998 10.3468C109.185 10.3468 107.698 11.9317 107.698 14.9279V15.5728H106.234C106.175 15.5728 106.118 15.5961 106.076 15.6376C106.034 15.6792 106.01 15.7356 106.01 15.7947V18.4265C106.01 18.5501 106.11 18.6506 106.234 18.6506H107.698V29.0984C107.698 29.2198 107.796 29.3203 107.92 29.3203H110.968C111.027 29.3198 111.083 29.2959 111.125 29.254C111.166 29.212 111.19 29.1553 111.19 29.0963V18.6485H114.034L118.393 29.0963C117.898 30.1913 117.412 30.4112 116.748 30.4112C116.21 30.4112 115.645 30.25 115.067 29.9338C115.04 29.9195 115.01 29.9106 114.98 29.9077C114.95 29.9048 114.92 29.908 114.891 29.917C114.861 29.927 114.835 29.9429 114.812 29.9639C114.789 29.9848 114.771 30.0102 114.759 30.0385L113.726 32.3018C113.702 32.3529 113.698 32.4113 113.716 32.465C113.733 32.5186 113.771 32.5636 113.82 32.5908C114.899 33.1749 115.873 33.4241 117.075 33.4241C119.325 33.4241 120.569 32.3772 121.664 29.5569L126.951 15.9015C126.965 15.8676 126.97 15.8309 126.966 15.7946C126.962 15.7582 126.95 15.7234 126.929 15.6932C126.909 15.6629 126.881 15.6382 126.849 15.6212C126.816 15.6042 126.78 15.5955 126.744 15.5958H123.572C123.526 15.5963 123.481 15.611 123.444 15.638C123.406 15.665 123.378 15.7029 123.363 15.7465L120.112 25.024L116.552 15.7403C116.536 15.698 116.508 15.6615 116.47 15.6357C116.433 15.6098 116.389 15.5959 116.344 15.5958H111.139ZM99.4581 15.5832H96.1069V12.1558C96.1069 12.1264 96.1011 12.0974 96.0898 12.0703C96.0785 12.0433 96.062 12.0187 96.0411 11.9981C96.0203 11.9774 95.9956 11.9611 95.9684 11.9501C95.9412 11.9391 95.9121 11.9335 95.8828 11.9338H92.8352C92.7765 11.9344 92.7204 11.9579 92.6788 11.9994C92.6373 12.0409 92.6138 12.0971 92.6132 12.1558V15.5832H91.147C91.1177 15.5832 91.0887 15.589 91.0616 15.6003C91.0345 15.6116 91.0099 15.6281 90.9893 15.649C90.9687 15.6698 90.9524 15.6945 90.9413 15.7217C90.9303 15.7489 90.9248 15.7779 90.925 15.8073V18.4244C90.925 18.548 91.0256 18.6485 91.147 18.6485H92.6132V25.4197C92.6132 28.1583 93.9747 29.5444 96.664 29.5444C97.7574 29.5444 98.6622 29.3203 99.5168 28.8367C99.5513 28.8172 99.58 28.789 99.5999 28.7547C99.6198 28.7205 99.6301 28.6815 99.6299 28.642V26.1504C99.6304 26.1122 99.6211 26.0745 99.6028 26.0409C99.5845 26.0074 99.5578 25.9791 99.5253 25.9589C99.4929 25.9387 99.4558 25.9272 99.4176 25.9255C99.3794 25.9239 99.3414 25.9321 99.3073 25.9494C98.7209 26.2446 98.1532 26.3807 97.5186 26.3807C96.5405 26.3807 96.1048 25.9389 96.1048 24.9444V18.6485H99.456C99.4855 18.6488 99.5148 18.6432 99.5421 18.632C99.5695 18.6208 99.5943 18.6043 99.6151 18.5835C99.636 18.5626 99.6525 18.5378 99.6637 18.5105C99.6748 18.4832 99.6804 18.4539 99.6802 18.4244V15.8073C99.6804 15.7779 99.6749 15.7489 99.6639 15.7217C99.6528 15.6945 99.6365 15.6698 99.6159 15.649C99.5952 15.6281 99.5707 15.6116 99.5436 15.6003C99.5165 15.589 99.4875 15.5832 99.4581 15.5832ZM83.391 15.3048C79.2857 15.3048 76.0664 18.4663 76.0664 22.501C76.0664 26.4938 79.2627 29.6197 83.3407 29.6197C87.4607 29.6197 90.6883 26.4707 90.6883 22.4507C90.6883 18.4433 87.4837 15.3048 83.391 15.3048ZM83.391 26.5315C81.2064 26.5315 79.558 24.7769 79.558 22.4486C79.558 20.1141 81.1498 18.4203 83.3407 18.4203C85.54 18.4203 87.1947 20.1748 87.1947 22.5031C87.1947 24.8376 85.5965 26.5315 83.391 26.5315ZM68.7 15.3048C66.9825 15.3048 65.5749 15.981 64.4146 17.365V15.8073C64.4146 15.7482 64.3912 15.6915 64.3497 15.6496C64.3081 15.6076 64.2516 15.5838 64.1925 15.5832H61.145C61.0859 15.5838 61.0294 15.6076 60.9879 15.6496C60.9463 15.6915 60.923 15.7482 60.923 15.8073V33.1226C60.923 33.244 61.0235 33.3445 61.145 33.3445H64.1925C64.2513 33.344 64.3074 33.3204 64.3489 33.2789C64.3904 33.2374 64.414 33.1813 64.4146 33.1226V27.6579C65.577 28.9581 66.9846 29.5946 68.7 29.5946C71.8878 29.5946 75.1155 27.1407 75.1155 22.4507C75.1155 17.7607 71.8899 15.3048 68.7 15.3048ZM71.5737 22.4507C71.5737 24.8376 70.1012 26.5063 67.9941 26.5063C65.91 26.5063 64.3392 24.7622 64.3392 22.4507C64.3392 20.1392 65.91 18.3951 67.9941 18.3951C70.0677 18.3951 71.5737 20.0994 71.5737 22.4507ZM53.9042 18.661C50.5027 17.8487 49.8974 17.2792 49.8974 16.0836C49.8974 14.953 50.9614 14.193 52.5449 14.193C54.078 14.193 55.6008 14.7688 57.1947 15.958C57.2185 15.9756 57.2455 15.9882 57.2741 15.9953C57.3028 16.0024 57.3326 16.0037 57.3618 15.9992C57.391 15.9948 57.419 15.9846 57.4443 15.9692C57.4695 15.9539 57.4915 15.9337 57.5089 15.9099L59.1719 13.5669C59.2042 13.5207 59.2179 13.4639 59.2101 13.408C59.2023 13.3521 59.1737 13.3012 59.1301 13.2655C57.2324 11.7412 55.0939 11.0021 52.5951 11.0021C48.9192 11.0021 46.3534 13.2047 46.3534 16.36C46.3534 19.7414 48.5673 20.939 52.394 21.8624C55.6489 22.6119 56.1998 23.2401 56.1998 24.3644C56.1998 25.6081 55.0897 26.3807 53.2989 26.3807C51.3133 26.3807 49.6942 25.7107 47.8803 24.1446C47.835 24.106 47.7764 24.0865 47.717 24.0901C47.6874 24.0924 47.6587 24.1006 47.6324 24.1143C47.6061 24.128 47.5829 24.1468 47.5641 24.1697L45.6999 26.3849C45.6619 26.429 45.643 26.4865 45.6473 26.5446C45.6516 26.6027 45.6788 26.6567 45.723 26.6948C47.7768 28.5548 50.4521 29.5802 53.2235 29.5695C57.1821 29.5695 59.7417 27.4066 59.7417 24.0608C59.7417 21.2322 58.0514 19.6681 53.9042 18.659M19.9351 0.59198C14.7078 0.59198 9.69463 2.66774 5.99837 6.36262C2.30212 10.0575 0.225586 15.0688 0.225586 20.2942C0.225586 25.5195 2.30212 30.5308 5.99837 34.2257C9.69463 37.9206 14.7078 39.9964 19.9351 39.9964C25.1624 39.9964 30.1756 37.9206 33.8719 34.2257C37.5681 30.5308 39.6446 25.5195 39.6446 20.2942C39.6446 15.0688 37.5681 10.0575 33.8719 6.36262C30.1756 2.66774 25.1624 0.59198 19.9351 0.59198ZM28.9751 29.0084C28.8911 29.1463 28.7808 29.2664 28.6503 29.3616C28.5198 29.4569 28.3718 29.5254 28.2148 29.5633C28.0577 29.6013 27.8947 29.6078 27.7352 29.5827C27.5756 29.5575 27.4225 29.5011 27.2848 29.4166C22.6559 26.5901 16.8331 25.9515 9.97143 27.5176C9.81424 27.5535 9.65151 27.5581 9.49255 27.5311C9.33358 27.5041 9.18149 27.4461 9.04495 27.3603C8.90842 27.2746 8.79011 27.1628 8.69679 27.0314C8.60347 26.8999 8.53697 26.7514 8.50107 26.5943C8.46518 26.4371 8.4606 26.2745 8.48759 26.1156C8.51458 25.9566 8.57262 25.8046 8.6584 25.6681C8.74417 25.5316 8.85599 25.4134 8.98749 25.3201C9.11898 25.2268 9.26757 25.1603 9.42476 25.1245C16.9316 23.4076 23.3722 24.1467 28.5667 27.3208C29.1448 27.6746 29.327 28.4305 28.9751 29.0084ZM31.3838 23.6442C31.1707 23.9908 30.8287 24.2388 30.433 24.3338C30.0372 24.4288 29.6199 24.363 29.2725 24.1509C23.9755 20.8951 15.899 19.9529 9.63212 21.854C9.25083 21.9444 8.8494 21.8861 8.50965 21.6909C8.16989 21.4957 7.9174 21.1783 7.80362 20.8035C7.68984 20.4286 7.72334 20.0245 7.89731 19.6735C8.07127 19.3225 8.37259 19.051 8.73985 18.9144C15.899 16.7432 24.7965 17.7963 30.879 21.5316C31.0513 21.6371 31.2011 21.7755 31.3198 21.9389C31.4385 22.1023 31.5239 22.2875 31.5709 22.4839C31.618 22.6803 31.6259 22.884 31.5941 23.0835C31.5624 23.2829 31.4916 23.4742 31.3859 23.6463M31.5954 18.058C25.2406 14.2872 14.7595 13.9396 8.69586 15.7821C8.46317 15.8563 8.21804 15.8836 7.97472 15.8622C7.7314 15.8409 7.49475 15.7715 7.27852 15.6579C7.06229 15.5444 6.87079 15.389 6.71516 15.2008C6.55952 15.0127 6.44285 14.7954 6.37193 14.5618C6.301 14.3282 6.27724 14.0828 6.30202 13.8399C6.32681 13.597 6.39963 13.3614 6.51628 13.1469C6.63292 12.9324 6.79106 12.7432 6.98149 12.5903C7.17192 12.4374 7.39085 12.3238 7.62556 12.2563C14.5857 10.1416 26.1601 10.5519 33.4721 14.8902C33.8926 15.1395 34.1968 15.5456 34.3178 16.0192C34.4388 16.4927 34.3666 16.9949 34.1172 17.4153C33.8678 17.8356 33.4615 18.1397 32.9878 18.2607C32.5141 18.3816 32.0117 18.3095 31.5912 18.0601" fill="white"/>
</svg>
