<svg width="32" height="13" viewBox="0 0 23 8" fill="none" xmlns="http://www.w3.org/2000/svg">
<path d="M9.29482 1.02113L7.81747 7.85313H9.59993L11.0773 1.02113H9.29482ZM20.7764 1.02113H19.2589C18.9217 1.02113 18.6246 1.22113 18.5042 1.51713L15.8225 7.85313H17.6932L18.0626 6.82913H20.3509L20.5677 7.85313H22.2217L20.7764 1.02113ZM18.5845 5.42913L19.5159 2.86913L20.0538 5.42913H18.5845ZM6.65325 1.02113L4.79853 5.66913L4.0438 1.71713C3.94745 1.26913 3.61022 1.01313 3.2168 1.01313H0.19786L0.157715 1.21313C0.783984 1.34913 1.48251 1.56513 1.91609 1.78913C2.17302 1.94113 2.25331 2.06113 2.3336 2.39713L3.75475 7.86113H5.63355L8.53206 1.02913H6.65325V1.02113ZM13.4218 2.92513C13.4218 2.68513 13.6626 2.41313 14.1765 2.35713C14.4334 2.33313 15.14 2.30113 15.9349 2.66913L16.248 1.21313C15.8144 1.06113 15.2604 0.91713 14.586 0.91713C12.8276 0.91713 11.5831 1.84513 11.5671 3.18113C11.551 4.16513 12.4583 4.71713 13.1247 5.04513C13.8152 5.38113 14.0561 5.59713 14.048 5.89313C14.048 6.34913 13.494 6.55713 12.9802 6.56513C12.0889 6.58113 11.559 6.32513 11.1495 6.13313L10.8284 7.62913C11.2459 7.82113 12.0167 7.98113 12.8196 7.99713C14.6984 7.99713 15.9188 7.07713 15.9349 5.66113C15.9188 3.82913 13.4057 3.71713 13.4218 2.92513Z" fill="#0F2496"/>
</svg>
