<svg width="144" height="45" viewBox="0 0 144 45" fill="none" xmlns="http://www.w3.org/2000/svg">
<path d="M34.6293 20.0048C27.7177 15.7937 16.3143 15.405 9.71433 17.4602C9.33304 17.5779 8.92504 17.5773 8.54409 17.4585C8.16314 17.3397 7.82713 17.1082 7.58033 16.7947C7.32846 16.4783 7.17379 16.0956 7.13507 15.6931C7.09634 15.2906 7.17523 14.8854 7.36217 14.5268C7.6115 14.0465 8.0405 13.6835 8.55017 13.5222C16.1255 11.1627 28.7168 11.6192 36.6772 16.4647C36.9622 16.6421 37.2002 16.8857 37.3709 17.1748C37.5417 17.4638 37.6401 17.7899 37.6579 18.1251C37.6758 18.4604 37.6124 18.795 37.4733 19.1005C37.3341 19.4061 37.1233 19.6735 36.8587 19.8802C36.6489 20.0415 36.4089 20.1591 36.1529 20.2262C35.8969 20.2933 35.6301 20.3084 35.3682 20.2707C35.1078 20.234 34.8548 20.1423 34.6293 20.0048ZM34.402 26.2418C34.2892 26.4318 34.1399 26.5977 33.9627 26.7298C33.7856 26.862 33.5841 26.9578 33.3698 27.0118C33.156 27.0643 32.9338 27.0732 32.7164 27.0379C32.4991 27.0027 32.2911 26.9239 32.1048 26.8065C26.3408 23.171 17.5537 22.1187 10.7337 24.2435C10.4156 24.3418 10.0752 24.3413 9.75735 24.2421C9.43954 24.1429 9.15926 23.9497 8.9535 23.688C8.74468 23.4241 8.61662 23.1054 8.58474 22.7704C8.55287 22.4353 8.61853 22.0982 8.77383 21.7997C8.98005 21.4001 9.33593 21.0982 9.76383 20.96C17.5518 18.5345 27.2355 19.7097 33.8538 23.8842C34.2333 24.1291 34.5028 24.5119 34.6055 24.9518C34.7081 25.3917 34.6339 25.8542 34.402 26.2418ZM31.7803 32.2313C31.6907 32.3841 31.5716 32.5175 31.43 32.6239C31.2883 32.7302 31.127 32.8074 30.9553 32.851C30.7841 32.8938 30.606 32.9013 30.4317 32.8733C30.2574 32.8453 30.0907 32.7822 29.9415 32.6878C24.9035 29.5308 18.5675 28.8177 11.1022 30.5685C10.8425 30.6289 10.5705 30.609 10.3224 30.5114C10.0742 30.4139 9.86154 30.2433 9.7125 30.0222C9.6112 29.8755 9.53957 29.7105 9.50167 29.5363C9.42114 29.1834 9.48166 28.8131 9.67033 28.5042C9.76292 28.3523 9.88459 28.2201 10.0284 28.1154C10.1721 28.0106 10.3352 27.9353 10.5082 27.8937C18.6757 25.9778 25.6827 26.8028 31.3367 30.3467C31.6395 30.5429 31.8546 30.8488 31.9369 31.2001C32.0193 31.5514 31.9643 31.9209 31.7803 32.2313ZM21.9427 0.5C10.1012 0.5 0.5 10.3505 0.5 22.5C0.5 34.6513 10.0993 44.5 21.9445 44.5C33.7878 44.5 43.3908 34.6513 43.3908 22.5C43.3908 10.3505 33.7878 0.5 21.9427 0.5ZM58.8403 20.8097C55.1388 19.904 54.4788 19.2697 54.4788 17.9313C54.4788 16.67 55.6393 15.8212 57.3608 15.8212C59.0292 15.8212 60.6865 16.4665 62.4208 17.7938C62.4467 17.8134 62.4762 17.8276 62.5077 17.8355C62.5392 17.8433 62.572 17.8448 62.604 17.8396C62.636 17.8345 62.6667 17.8229 62.6942 17.8056C62.7216 17.7882 62.7452 17.7655 62.7637 17.7388L64.5732 15.1245C64.609 15.0724 64.6241 15.0088 64.6157 14.9461C64.6072 14.8834 64.5757 14.8261 64.5273 14.7853C62.4612 13.084 60.1347 12.259 57.414 12.259C53.4173 12.259 50.6252 14.7193 50.6252 18.2412C50.6252 22.0178 53.036 23.3525 57.1977 24.3865C60.7397 25.2243 61.3373 25.9265 61.3373 27.1805C61.3373 28.5683 60.1292 29.4337 58.184 29.4337C56.0207 29.4337 54.2588 28.6857 52.288 26.933C52.2638 26.9115 52.2355 26.8951 52.2048 26.8849C52.1741 26.8747 52.1416 26.8708 52.1094 26.8736C52.0771 26.8763 52.0458 26.8856 52.0172 26.9009C51.9887 26.9161 51.9635 26.937 51.9433 26.9623L49.9157 29.4373C49.8748 29.4869 49.8545 29.5503 49.8589 29.6144C49.8633 29.6785 49.8922 29.7385 49.9395 29.782C52.2348 31.8848 55.0545 32.994 58.0997 32.994C62.408 32.994 65.1928 30.5795 65.1928 26.8413C65.1928 23.6825 63.354 21.9353 58.8403 20.8097ZM78.0665 25.0447C78.0665 27.7103 76.4642 29.573 74.1707 29.573C71.9065 29.573 70.1942 27.6278 70.1942 25.0447C70.1942 22.4597 71.9047 20.5163 74.1725 20.5163C76.4275 20.5163 78.0665 22.4193 78.0665 25.0447ZM74.9388 17.0623C73.0725 17.0623 71.5398 17.8177 70.2767 19.365V17.6233C70.277 17.5584 70.252 17.4959 70.207 17.4492C70.1848 17.4263 70.1583 17.4081 70.1291 17.3955C70.0998 17.3829 70.0684 17.3762 70.0365 17.3758H66.7182C66.6863 17.3761 66.6548 17.3828 66.6255 17.3954C66.5963 17.408 66.5698 17.4262 66.5477 17.4492C66.5015 17.4961 66.4758 17.5594 66.4762 17.6252V36.9595C66.4762 37.0988 66.5862 37.2107 66.72 37.2107H70.0365C70.0685 37.21 70.1 37.2031 70.1293 37.1902C70.1585 37.1772 70.185 37.1587 70.207 37.1355C70.2525 37.0883 70.2775 37.025 70.2767 36.9595V30.8563C71.5417 32.312 73.0725 33.0197 74.9388 33.0197C78.4093 33.0197 81.9202 30.2807 81.9202 25.0447C81.9202 19.805 78.4093 17.0623 74.9388 17.0623ZM90.9255 29.6005C88.5477 29.6005 86.7565 27.6425 86.7565 25.0428C86.7565 22.4358 88.4853 20.542 90.8705 20.542C93.263 20.542 95.0652 22.5018 95.0652 25.1015C95.0652 27.7085 93.3253 29.6005 90.9255 29.6005ZM90.9255 17.0642C86.4558 17.0642 82.956 20.5952 82.956 25.0997C82.956 29.5583 86.432 33.0527 90.8705 33.0527C95.353 33.0527 98.8638 29.5327 98.8638 25.0428C98.8638 20.5695 95.3787 17.0642 90.9255 17.0642ZM108.406 17.3758H104.758V13.5478C104.759 13.4992 104.745 13.4515 104.719 13.4104C104.693 13.3694 104.656 13.3368 104.611 13.3168C104.581 13.3042 104.549 13.298 104.516 13.2985H101.2C101.135 13.2995 101.074 13.3259 101.029 13.3718C100.984 13.4186 100.959 13.4811 100.959 13.546V17.3722H99.3643C99.3157 17.3724 99.2682 17.3874 99.2282 17.4153C99.1883 17.4431 99.1578 17.4824 99.1407 17.528C99.1285 17.5583 99.1223 17.5907 99.1223 17.6233V20.5475C99.1223 20.6832 99.2323 20.795 99.3643 20.795H100.959V28.3593C100.959 31.4155 102.443 32.9665 105.367 32.9665C106.555 32.9665 107.541 32.7135 108.472 32.1708C108.51 32.149 108.541 32.1177 108.562 32.08C108.584 32.0424 108.595 31.9997 108.595 31.9563V29.1733C108.595 29.1313 108.584 29.09 108.564 29.0532C108.544 29.0164 108.515 28.9852 108.48 28.9625C108.445 28.9402 108.404 28.9275 108.363 28.9256C108.321 28.9236 108.28 28.9326 108.243 28.9515C107.603 29.2815 106.987 29.4337 106.298 29.4337C105.235 29.4337 104.758 28.9368 104.758 27.8277V20.795H108.406C108.439 20.795 108.47 20.7886 108.5 20.776C108.53 20.7634 108.556 20.7449 108.579 20.7217C108.625 20.6747 108.65 20.6115 108.65 20.5457V17.6215C108.65 17.5557 108.625 17.4925 108.579 17.4455C108.556 17.4224 108.529 17.4041 108.5 17.3915C108.47 17.3789 108.438 17.3723 108.406 17.3722V17.3758ZM121.119 17.3887V16.9212C121.119 15.537 121.634 14.9192 122.794 14.9192C123.484 14.9192 124.041 15.0603 124.662 15.2748C124.699 15.2865 124.737 15.2893 124.775 15.2829C124.813 15.2765 124.848 15.2612 124.879 15.2382C124.911 15.2151 124.937 15.1848 124.955 15.1498C124.972 15.1147 124.982 15.0759 124.982 15.0365V12.1692C124.982 12.1159 124.965 12.0639 124.934 12.0207C124.903 11.9774 124.86 11.9452 124.809 11.929C123.918 11.6509 122.989 11.5148 122.056 11.5257C118.994 11.5257 117.373 13.2948 117.373 16.637V17.3575H115.778C115.746 17.3579 115.715 17.3646 115.686 17.3772C115.656 17.3898 115.63 17.408 115.608 17.4308C115.562 17.4781 115.537 17.5413 115.538 17.6068V20.5457C115.538 20.6832 115.646 20.795 115.78 20.795H117.375V32.4623C117.375 32.5998 117.481 32.7098 117.615 32.7098H120.932C121.064 32.7098 121.172 32.5998 121.172 32.4623V20.795H124.27L129.011 32.4587C128.472 33.6852 127.942 33.929 127.22 33.929C126.635 33.929 126.021 33.7493 125.39 33.3973C125.361 33.3813 125.329 33.3714 125.296 33.3683C125.263 33.3651 125.229 33.3688 125.198 33.379C125.166 33.3902 125.137 33.4077 125.113 33.4304C125.088 33.453 125.069 33.4805 125.055 33.511L123.933 36.041C123.907 36.0977 123.903 36.1619 123.922 36.2212C123.941 36.2805 123.982 36.3306 124.036 36.3618C125.11 36.9883 126.334 37.3103 127.578 37.2932C130.023 37.2932 131.378 36.1235 132.572 32.9757L138.323 17.7278C138.337 17.69 138.342 17.6494 138.337 17.6093C138.333 17.5691 138.319 17.5306 138.297 17.4968C138.276 17.4636 138.246 17.4362 138.212 17.417C138.177 17.3978 138.139 17.3875 138.099 17.3868H134.647C134.595 17.3868 134.545 17.4031 134.504 17.4334C134.462 17.4637 134.431 17.5065 134.416 17.5555L130.881 27.9157L127.011 17.55C126.994 17.5031 126.963 17.4625 126.923 17.4336C126.882 17.4048 126.834 17.3891 126.784 17.3887H121.119ZM113.749 17.374H110.432C110.4 17.3746 110.369 17.3816 110.339 17.3945C110.31 17.4074 110.284 17.426 110.262 17.4492C110.216 17.4964 110.191 17.5596 110.192 17.6252V32.4642C110.192 32.6017 110.302 32.7117 110.434 32.7117H113.751C113.882 32.7117 113.991 32.6017 113.991 32.4642V17.6233C113.991 17.5578 113.966 17.4946 113.921 17.4473C113.899 17.4244 113.872 17.406 113.842 17.3935C113.813 17.3809 113.781 17.3743 113.749 17.374ZM112.106 10.6182C111.791 10.6207 111.481 10.6856 111.191 10.8093C110.902 10.933 110.64 11.1129 110.421 11.3387C109.976 11.797 109.726 12.413 109.73 13.0565C109.727 13.6979 109.975 14.315 110.421 14.7762C110.641 15.0014 110.903 15.181 111.193 15.3046C111.482 15.4282 111.793 15.4935 112.108 15.4967C112.742 15.493 113.349 15.2345 113.795 14.7762C114.24 14.3178 114.489 13.7 114.486 13.0565C114.486 11.709 113.421 10.6182 112.11 10.6182H112.106ZM141.289 18.8498H140.682V19.6455H141.289C141.592 19.6455 141.773 19.4933 141.773 19.2495C141.773 18.9892 141.592 18.8517 141.289 18.8517V18.8498ZM141.683 19.9847L142.343 20.9325H141.786L141.194 20.0635H140.682V20.9325H140.217V18.4208H141.307C141.876 18.4208 142.252 18.7197 142.252 19.2202C142.259 19.3935 142.207 19.5641 142.103 19.7033C142 19.8425 141.851 19.9419 141.683 19.9847ZM141.166 17.583C139.971 17.583 139.065 18.5583 139.065 19.7518C139.065 20.9435 139.964 21.906 141.153 21.906C142.349 21.906 143.256 20.9307 143.256 19.7372C143.256 18.5455 142.354 17.5848 141.166 17.5848V17.583ZM141.153 22.1443C140.844 22.144 140.538 22.0816 140.253 21.9606C139.968 21.8397 139.711 21.6627 139.496 21.4403C139.057 20.9897 138.814 20.3831 138.821 19.7537C138.821 18.4392 139.854 17.3447 141.166 17.3447C141.475 17.3452 141.781 17.4078 142.065 17.5287C142.35 17.6497 142.607 17.8265 142.822 18.0487C143.04 18.2718 143.212 18.5358 143.328 18.8256C143.444 19.1153 143.502 19.4251 143.498 19.7372C143.498 21.0517 142.466 22.1462 141.153 22.1462V22.1443Z" fill="black"/>
</svg>
